<svg id="Layer_1" enable-background="new 0 0 512.002 512.002" height="512" viewBox="0 0 512.002 512.002" width="512" xmlns="http://www.w3.org/2000/svg"><g><g clip-rule="evenodd" fill-rule="evenodd"><circle cx="256.001" cy="256.001" fill="#8690af" r="60"/><path d="m256.001 196.001c33.137 0 60 26.863 60 60s-26.863 60-60 60-60-26.863-60-60 26.863-60 60-60zm127.5 60c0-70.417-57.084-127.5-127.5-127.5-70.417 0-127.5 57.084-127.5 127.5 0 70.417 57.083 127.5 127.5 127.5 70.416 0 127.5-57.083 127.5-127.5z" fill="#60a4ff"/><path d="m256.001 128.501c70.416 0 127.5 57.084 127.5 127.5 0 70.417-57.084 127.5-127.5 127.5-70.417 0-127.5-57.083-127.5-127.5 0-70.416 57.083-127.5 127.5-127.5zm0 257.5c105.119 0 196.893-52.288 246-130-49.106-77.712-140.88-130-246-130s-196.894 52.288-246 130c49.106 77.712 140.88 130 246 130z" fill="#fff"/><path d="m496.168 15.834c7.779 7.778 7.779 20.506 0 28.284l-452.05 452.05c-7.778 7.778-20.506 7.778-28.284 0-7.778-7.778-7.778-20.506 0-28.284l452.05-452.05c7.778-7.778 20.505-7.778 28.284 0z" fill="#ff5a58"/></g><g><path d="m402.538 151.891 100.701-100.702c5.65-5.651 8.763-13.185 8.763-21.214 0-8.028-3.113-15.563-8.764-21.213-5.65-5.65-13.183-8.762-21.212-8.762s-15.563 3.112-21.213 8.763l-118.943 118.943c-27.733-7.769-56.591-11.705-85.869-11.705-52.394 0-103.832 12.814-148.754 37.058-43.707 23.587-80.257 57.337-105.7 97.6-2.062 3.263-2.062 7.421 0 10.684 26.035 41.202 63.165 75.129 107.912 98.773l-100.696 100.697c-5.651 5.65-8.763 13.184-8.763 21.213 0 8.028 3.112 15.562 8.763 21.213 5.651 5.65 13.185 8.763 21.213 8.763s15.563-3.112 21.213-8.763l118.938-118.938c27.732 7.766 56.591 11.7 85.874 11.7 52.394 0 103.832-12.814 148.754-37.058 43.707-23.588 80.257-57.337 105.699-97.601 2.062-3.263 2.062-7.421 0-10.684-26.032-41.196-63.164-75.121-107.916-98.767zm-380.611 104.111c34.222-51.162 87.211-88.833 148.1-107.286-19.494 15.613-34.286 36.025-42.989 59.504-1.919 5.179.723 10.933 5.901 12.853 1.146.425 2.32.626 3.474.626 4.063 0 7.884-2.495 9.378-6.527 16.997-45.859 61.287-76.671 110.209-76.671 21.015 0 41.229 5.5 59.116 15.958l-35.608 35.608c-4.386-1.569-8.898-2.678-13.508-3.336v-19.723c0-5.522-4.477-10-10-10s-10 4.478-10 10v19.719c-5.562.799-10.909 2.26-15.972 4.29l-9.865-17.086c-2.761-4.782-8.877-6.423-13.66-3.66-4.783 2.762-6.422 8.877-3.66 13.66l9.88 17.113c-4.337 3.422-8.258 7.344-11.681 11.681l-17.113-9.88c-4.784-2.76-10.898-1.123-13.66 3.66s-1.123 10.898 3.66 13.66l17.087 9.865c-2.031 5.063-3.491 10.41-4.29 15.972h-13.23c-5.523 0-10 4.478-10 10s4.477 10 10 10h13.233c.657 4.61 1.766 9.123 3.334 13.509l-35.619 35.619c-3.408-5.84-6.309-11.96-8.658-18.298-1.92-5.178-7.671-7.82-12.853-5.901-5.178 1.92-7.82 7.674-5.901 12.853 3.357 9.058 7.68 17.731 12.867 25.891l-15.592 15.592c-42.138-21.108-77.332-51.783-102.38-89.265zm184.583 7.063c-.327-2.322-.509-4.677-.509-7.064 0-27.57 22.43-50 50-50 2.387 0 4.742.182 7.064.509zm-169.463 226.032c-1.873 1.873-4.384 2.905-7.071 2.905s-5.198-1.032-7.071-2.905c-1.874-1.873-2.905-4.384-2.905-7.07 0-2.688 1.031-5.198 2.905-7.071l452.05-452.05c1.873-1.873 4.384-2.905 7.071-2.905s5.197 1.032 7.07 2.905c1.874 1.873 2.905 4.384 2.905 7.07 0 2.688-1.031 5.198-2.905 7.071zm218.954-115.596c-21.018 0-41.232-5.499-59.119-15.954l35.609-35.609c4.387 1.569 8.899 2.677 13.51 3.334v19.723c0 5.522 4.477 10 10 10s10-4.478 10-10v-19.72c5.562-.799 10.909-2.26 15.971-4.29l9.865 17.087c1.852 3.208 5.213 5.002 8.669 5.002 1.696 0 3.416-.433 4.991-1.342 4.783-2.762 6.422-8.877 3.66-13.66l-9.88-17.113c4.337-3.423 8.258-7.344 11.681-11.681l17.113 9.88c1.575.909 3.294 1.342 4.991 1.342 3.456 0 6.817-1.794 8.669-5.002 2.762-4.783 1.123-10.898-3.66-13.66l-17.087-9.865c2.031-5.063 3.491-10.41 4.29-15.972h19.719c5.523 0 10-4.478 10-10s-4.477-10-10-10h-19.724c-.658-4.609-1.766-9.121-3.335-13.508l35.607-35.607c10.458 17.889 15.958 38.103 15.958 59.115.002 64.79-52.708 117.5-117.498 117.5zm49.49-124.564c.327 2.323.51 4.677.51 7.064 0 27.57-22.43 50-50 50-2.388 0-4.742-.182-7.064-.509zm36.36 114.386c31.464-25.22 51.65-63.955 51.65-107.322 0-26.356-7.394-51.644-21.413-73.661l15.599-15.599c42.146 21.109 77.341 51.782 102.387 89.259-34.245 51.197-87.282 88.883-148.223 107.323z"/><path d="m138.501 256.001c0-5.522-4.477-10-10-10h-.007c-5.523 0-9.996 4.478-9.996 10s4.48 10 10.003 10 10-4.478 10-10z"/></g></g></svg>